<svg stroke="currentColor" fill="currentColor" stroke-width='0' width="60px" height="48px" version="1.1" viewBox="0 0 304 151" xmlns="http://www.w3.org/2000/svg">
<path d="M165.701 116.973L175.409 118.956C178.089 119.506 180.918 120.091 181.526 120.27C181.776 120.348 182.035 120.41 182.291 120.466C184.334 120.882 186.472 120.617 188.212 119.857C187.901 120.659 187.366 122.052 187.241 122.326C187.12 122.59 186.078 124.343 185.441 125.385C184.632 126.732 180.559 126.42 179.193 126.198L162.021 122.679C160.448 122.358 160.649 121.616 160.66 121.586C161.221 119.76 161.955 117.768 162.598 116.335C163.623 116.547 164.616 116.753 165.701 116.973L165.701 116.973Z"/>
<path d="M13.9583 57.1121L1.98393 49.7829C1.98393 49.7829 10.6389 52.0011 12.4115 52.3629C14.1805 52.727 23.4181 56.9199 23.4181 56.9199L26.3267 29.1448L28.5768 13.5089C28.5768 13.5089 42.0932 15.8539 42.7281 16.4068C43.5753 17.1402 63.1913 54.5905 66.3789 57.0405C67.4909 57.8927 99.6604 72.1184 99.6604 72.1184C99.6635 72.1183 229.888 99.4318 259.292 106.725C288.695 114.019 293.14 124.465 293.14 124.465C293.14 124.465 305.368 129.617 303.546 133.586C301.284 138.521 264.229 135.913 259.057 134.851C256.207 134.265 224.776 127.509 189.891 120.073C190.01 119.76 190.099 119.538 190.099 119.538C190.116 119.505 190.238 119.174 190.099 118.692C190.524 118.324 190.908 117.928 191.193 117.485C192.858 114.864 191.242 111.853 187.574 110.765C187.463 110.731 187.305 110.699 187.103 110.654C186.545 110.538 128.803 103.148 126.742 106.376C126.682 106.478 126.659 106.589 126.652 106.697C121.056 105.522 115.853 104.448 111.316 103.518C68.0449 94.6534 12.8969 64.2946 12.8969 64.2946L13.2889 63.1064C13.2889 63.1064 12.821 61.3719 12.4037 60.8107C11.9987 60.2489 12.3771 58.2607 12.6035 57.7781C12.833 57.2953 13.9637 57.1134 13.9637 57.1134L13.9583 57.1121ZM291.572 123.952L289.412 120.926L283.799 119.776L284.707 122.547L291.572 123.952ZM278.332 119.887L284.014 122.403L283.254 119.665L277.424 117.123L278.332 119.887ZM250.035 115.048L250.088 115.06C250.987 115.245 251.962 114.875 252.252 114.232L253.017 112.556C253.314 111.919 252.82 111.247 251.915 111.061L251.858 111.055C250.959 110.866 249.988 111.239 249.694 111.883L248.929 113.555L248.932 113.554C248.641 114.194 249.136 114.863 250.035 115.048V115.048ZM244.176 113.848L244.232 113.854C245.131 114.043 246.103 113.674 246.397 113.032L247.162 111.356C247.456 110.719 246.964 110.047 246.059 109.861L246.002 109.848C245.104 109.664 244.132 110.038 243.838 110.677L243.073 112.353C242.783 112.996 243.277 113.661 244.176 113.848L244.176 113.848ZM238.314 112.644L238.371 112.657C239.27 112.842 240.241 112.472 240.535 111.828L241.3 110.157C241.594 109.513 241.099 108.844 240.197 108.662L240.144 108.649C239.239 108.464 238.267 108.838 237.974 109.478L237.208 111.149C236.921 111.793 237.412 112.462 238.314 112.644V112.644ZM232.455 111.445L232.509 111.458C233.414 111.642 234.383 111.273 234.679 110.629L235.445 108.957C235.738 108.313 235.244 107.644 234.342 107.462L234.285 107.449C233.38 107.26 232.412 107.634 232.121 108.278L231.356 109.949C231.056 110.591 231.55 111.26 232.455 111.445V111.445ZM226.591 110.245L226.638 110.252C227.543 110.441 228.508 110.067 228.802 109.423L229.567 107.752C229.864 107.115 229.369 106.439 228.471 106.256L228.414 106.244C227.509 106.059 226.54 106.433 226.25 107.072L225.485 108.744L225.488 108.748C225.198 109.392 225.689 110.057 226.591 110.245L226.591 110.245ZM220.732 109.042L220.785 109.054C221.691 109.243 222.656 108.87 222.949 108.226L223.715 106.554C224.008 105.911 223.517 105.241 222.612 105.059L222.558 105.046C221.653 104.862 220.685 105.235 220.388 105.875L219.623 107.546C219.333 108.19 219.83 108.859 220.732 109.042V109.042ZM214.867 107.842L214.921 107.855C215.819 108.04 216.791 107.67 217.085 107.026L217.85 105.351C218.144 104.713 217.649 104.042 216.747 103.855L216.694 103.849C215.789 103.66 214.817 104.034 214.523 104.678L213.758 106.349L213.761 106.349C213.474 106.988 213.962 107.66 214.867 107.842L214.867 107.842ZM209.005 106.643L209.059 106.656C209.964 106.84 210.933 106.471 211.223 105.827L211.988 104.151C212.285 103.514 211.79 102.842 210.885 102.656L210.832 102.643C209.933 102.458 208.958 102.832 208.668 103.472L207.903 105.147C207.609 105.789 208.103 106.454 209.005 106.643V106.643ZM203.143 105.439L203.197 105.452C204.102 105.641 205.068 105.267 205.361 104.623L206.126 102.952C206.423 102.314 205.928 101.639 205.03 101.456L204.973 101.444C204.068 101.259 203.1 101.633 202.809 102.272L202.044 103.944C201.747 104.585 202.242 105.257 203.143 105.439L203.143 105.439ZM197.282 104.242L197.339 104.254C198.237 104.439 199.212 104.07 199.503 103.426L200.265 101.755C200.561 101.111 200.067 100.441 199.162 100.259L199.105 100.247C198.209 100.057 197.235 100.431 196.941 101.075L196.176 102.747C195.889 103.388 196.38 104.057 197.282 104.242ZM191.417 103.04L191.474 103.053C192.372 103.238 193.344 102.868 193.638 102.224L194.403 100.549C194.696 99.9114 194.202 99.2399 193.3 99.0532L193.246 99.0405C192.341 98.8561 191.373 99.2298 191.076 99.8694L190.311 101.545C190.021 102.187 190.518 102.854 191.417 103.04V103.04ZM185.555 101.837L185.609 101.849C186.514 102.038 187.479 101.665 187.773 101.021L188.538 99.3494C188.834 98.7055 188.343 98.036 187.441 97.8537L187.385 97.8411C186.48 97.6567 185.514 98.0302 185.221 98.6697L184.455 100.341C184.165 100.983 184.656 101.654 185.555 101.837L185.555 101.837ZM179.696 100.639L179.744 100.652C180.649 100.837 181.614 100.468 181.908 99.8237L182.673 98.148C182.97 97.5106 182.478 96.8389 181.577 96.6522L181.52 96.6462C180.615 96.4574 179.646 96.8311 179.35 97.4751L178.585 99.1465L178.591 99.1462C178.3 99.7855 178.792 100.455 179.696 100.639L179.696 100.639ZM173.831 99.4378L173.888 99.4504C174.787 99.6351 175.759 99.2656 176.052 98.6218L176.817 96.9461C177.114 96.3087 176.617 95.6373 175.715 95.4506L175.661 95.4379C174.756 95.2535 173.788 95.6272 173.491 96.2668L172.726 97.9425C172.435 98.5862 172.933 99.251 173.831 99.4378V99.4378ZM167.97 98.234L168.026 98.2467C168.925 98.4357 169.897 98.0618 170.19 97.418L170.956 95.7467C171.249 95.1094 170.758 94.4334 169.853 94.2512L169.796 94.2386C168.897 94.0539 167.926 94.4278 167.632 95.0672L166.867 96.7386C166.576 97.3801 167.071 98.0494 167.97 98.234L167.97 98.234ZM162.108 97.0346L162.165 97.0472C163.063 97.2319 164.035 96.8624 164.329 96.2186L165.094 94.5472C165.387 93.9034 164.893 93.2341 163.991 93.0518L163.938 93.0391C163.033 92.8547 162.061 93.2242 161.767 93.868L161.002 95.5393C160.715 96.1807 161.212 96.852 162.108 97.0346V97.0346ZM156.249 95.8373L156.303 95.85C157.208 96.0344 158.177 95.6651 158.473 95.0211L159.238 93.3453C159.532 92.7081 159.038 92.0366 158.136 91.8499L158.079 91.8439C157.174 91.6551 156.206 92.0288 155.915 92.6659L155.15 94.3416C154.85 94.9835 155.344 95.6485 156.249 95.8372L156.249 95.8373ZM150.384 94.6358L150.441 94.6419C151.346 94.8306 152.311 94.457 152.605 93.8132L153.37 92.1419C153.667 91.5045 153.176 90.8328 152.274 90.6461L152.217 90.6335C151.306 90.4494 150.344 90.8228 150.047 91.4624L149.282 93.1338C148.991 93.7796 149.483 94.4491 150.384 94.6358L150.384 94.6358ZM144.526 93.4319L144.57 93.4451C145.478 93.6293 146.44 93.2603 146.734 92.6165L147.499 90.9407C147.796 90.3033 147.304 89.6317 146.403 89.445L146.346 89.4389C145.45 89.2497 144.476 89.6237 144.182 90.2676L143.417 91.9389L143.423 91.9386C143.129 92.5781 143.627 93.2494 144.526 93.4319L144.526 93.4319ZM138.664 92.2303L138.717 92.243C139.616 92.4277 140.591 92.0581 140.881 91.4144L141.646 89.7387C141.943 89.1013 141.446 88.4299 140.544 88.2432L140.49 88.237C139.582 88.0484 138.617 88.422 138.326 89.0657L137.561 90.737C137.271 91.3807 137.759 92.046 138.664 92.2303L138.664 92.2303ZM132.805 91.0329L132.859 91.0391C133.758 91.2282 134.729 90.8543 135.023 90.2105L135.788 88.5391C136.082 87.9019 135.587 87.226 134.685 87.0437L134.632 87.0309C133.724 86.8467 132.758 87.2203 132.468 87.8595L131.703 89.5353C131.406 90.1792 131.897 90.8443 132.805 91.0329L132.805 91.0329ZM126.94 89.8293L126.994 89.842C127.893 90.0267 128.864 89.6572 129.158 89.0134L129.923 87.342C130.217 86.6982 129.722 86.0289 128.821 85.8466L128.767 85.8338C127.859 85.6452 126.893 86.0188 126.603 86.6625L125.838 88.3338C125.547 88.9753 126.038 89.6448 126.94 89.8293V89.8293ZM121.079 88.6299L121.135 88.6425C122.034 88.8272 123.006 88.4577 123.299 87.8138L124.064 86.1381C124.358 85.5008 123.864 84.8294 122.962 84.6427L122.905 84.6366C122 84.4479 121.032 84.8216 120.735 85.4589L119.97 87.1347C119.682 87.776 120.173 88.4433 121.079 88.6298L121.079 88.6299ZM115.213 87.424L115.27 87.4367C116.169 87.6257 117.141 87.2518 117.434 86.608L118.199 84.9366C118.496 84.2992 117.999 83.6235 117.103 83.4409L117.046 83.4283C116.141 83.2439 115.173 83.6176 114.876 84.2572L114.111 85.9286C113.817 86.5746 114.312 87.2439 115.213 87.424L115.213 87.424Z"/>
<path d="M186.575 111.824C186.704 111.851 186.799 111.868 186.868 111.889C189.671 112.721 190.913 115.023 189.63 117.027C189.529 117.196 189.38 117.35 189.247 117.502C188.916 117.88 188.51 118.206 188.049 118.481C186.468 119.42 184.249 119.755 182.243 119.154C181.683 118.988 179.973 118.617 175.949 117.796L166.241 115.813C165.188 115.596 164.179 115.388 163.173 115.178C162.627 115.066 162.082 114.957 161.549 114.847C141.498 110.679 130.415 107.966 128.556 106.766C133.238 105.66 179.241 110.325 186.575 111.824L186.575 111.824Z"/>
</svg>
