<svg stroke="currentColor" fill="currentColor" stroke-width='0' width="60px" height="48px" version="1.1" viewBox="0 0 325 273" xmlns="http://www.w3.org/2000/svg">
<path d="M194.276 166.052L203.719 163.051C206.328 162.225 209.083 161.356 209.701 161.216C209.957 161.162 210.214 161.09 210.464 161.014C212.451 160.382 214.188 159.107 215.337 157.596C215.457 158.448 215.668 159.925 215.693 160.224C215.716 160.515 215.661 162.553 215.613 163.773C215.563 165.344 211.855 167.057 210.554 167.53L193.845 172.828C192.315 173.315 192.129 172.569 192.125 172.538C191.724 170.67 191.394 168.573 191.256 167.008C192.254 166.693 193.222 166.389 194.276 166.052L194.276 166.052Z"/>
<path d="M32.6047 187.763L18.5766 187.201C18.5766 187.201 27.2148 184.919 28.9389 184.37C30.661 183.826 40.7706 182.983 40.7706 182.983L29.7695 157.314L24.1114 142.565C24.1114 142.565 37.056 138.024 37.8799 138.197C38.9771 138.424 74.3617 161.56 78.3391 162.145C79.7255 162.347 114.748 159.084 114.748 159.084C114.751 159.083 241.768 119.445 270.997 111.478C300.225 103.512 309.198 110.466 309.198 110.466C309.198 110.466 322.386 109.003 322.731 113.356C323.162 118.768 289.536 134.556 284.504 136.15C281.729 137.028 250.993 146.452 216.908 156.966C216.86 156.635 216.83 156.398 216.83 156.398C216.828 156.36 216.773 156.012 216.417 155.659C216.609 155.13 216.751 154.598 216.783 154.072C216.959 150.972 214.081 149.131 210.348 149.969C210.234 149.993 210.081 150.042 209.883 150.101C209.339 150.272 155.321 171.969 155.095 175.793C155.092 175.911 155.126 176.019 155.172 176.117C149.714 177.819 144.648 179.418 140.233 180.818C98.1305 194.173 35.1795 194.551 35.1795 194.551L34.9426 193.323C34.9426 193.323 33.6885 192.037 33.0505 191.75C32.423 191.457 31.7841 189.536 31.7465 189.005C31.7116 188.471 32.6101 187.761 32.6101 187.761L32.6047 187.763ZM307.579 110.783L304.218 109.194L298.757 110.926L300.9 112.902L307.579 110.783ZM294.037 113.688L300.225 113.115L298.226 111.094L291.897 111.718L294.037 113.688ZM266.971 123.258L267.024 123.243C267.899 122.966 268.57 122.168 268.51 121.464L268.361 119.628C268.309 118.927 267.55 118.582 266.669 118.86L266.617 118.882C265.74 119.155 265.074 119.956 265.131 120.661L265.278 122.493L265.281 122.491C265.338 123.191 266.096 123.535 266.971 123.258V123.258ZM261.271 125.067L261.323 125.044C262.2 124.771 262.869 123.975 262.812 123.271L262.663 121.435C262.609 120.736 261.853 120.389 260.972 120.667L260.916 120.684C260.041 120.961 259.375 121.761 259.43 122.462L259.579 124.298C259.64 125.002 260.395 125.342 261.271 125.067L261.271 125.067ZM255.566 126.873L255.622 126.857C256.497 126.58 257.165 125.783 257.107 125.078L256.961 123.246C256.903 122.541 256.145 122.197 255.269 122.478L255.216 122.493C254.336 122.773 253.67 123.573 253.725 124.274L253.872 126.107C253.935 126.809 254.69 127.154 255.566 126.873V126.873ZM249.866 128.682L249.919 128.667C250.799 128.387 251.465 127.592 251.41 126.885L251.263 125.053C251.206 124.348 250.448 124.004 249.571 124.285L249.516 124.301C248.633 124.578 247.97 125.376 248.03 126.08L248.177 127.912C248.228 128.619 248.986 128.962 249.866 128.682V128.682ZM244.161 130.494L244.205 130.477C245.087 130.2 245.748 129.403 245.691 128.698L245.544 126.866C245.492 126.165 244.731 125.816 243.857 126.094L243.802 126.111C242.922 126.391 242.258 127.19 242.316 127.89L242.463 129.722L242.468 129.724C242.528 130.428 243.281 130.769 244.161 130.494L244.161 130.494ZM238.458 132.299L238.511 132.284C239.394 132.008 240.055 131.211 239.997 130.506L239.85 128.673C239.793 127.968 239.037 127.623 238.159 127.905L238.105 127.92C237.225 128.2 236.562 128.999 236.615 129.702L236.761 131.534C236.822 132.238 237.582 132.58 238.458 132.299V132.299ZM232.753 134.111L232.806 134.096C233.681 133.819 234.349 133.023 234.292 132.318L234.143 130.482C234.089 129.782 233.329 129.437 232.451 129.713L232.401 129.734C231.519 130.011 230.853 130.811 230.911 131.516L231.057 133.348L231.06 133.347C231.12 134.045 231.874 134.393 232.753 134.111L232.753 134.111ZM227.05 135.922L227.103 135.907C227.983 135.626 228.649 134.832 228.589 134.128L228.44 132.292C228.388 131.591 227.629 131.246 226.748 131.524L226.695 131.539C225.82 131.816 225.152 132.618 225.21 133.317L225.359 135.153C225.415 135.857 226.171 136.196 227.05 135.922V135.922ZM221.345 137.728L221.398 137.713C222.281 137.437 222.942 136.64 222.884 135.935L222.737 134.102C222.686 133.401 221.924 133.052 221.051 133.331L220.995 133.348C220.115 133.628 219.452 134.426 219.51 135.126L219.656 136.958C219.71 137.663 220.469 138.009 221.345 137.728L221.345 137.728ZM215.644 139.541L215.7 139.524C216.574 139.247 217.245 138.449 217.185 137.745L217.036 135.915C216.981 135.208 216.223 134.865 215.344 135.147L215.288 135.163C214.414 135.435 213.745 136.237 213.803 136.942L213.949 138.774C214.011 139.474 214.766 139.819 215.644 139.541ZM209.937 141.351L209.993 141.334C210.868 141.057 211.536 140.261 211.479 139.556L211.33 137.72C211.275 137.02 210.516 136.675 209.638 136.951L209.585 136.966C208.705 137.247 208.041 138.045 208.094 138.748L208.243 140.584C208.302 141.286 209.061 141.626 209.937 141.351V141.351ZM204.232 143.157L204.285 143.142C205.168 142.866 205.829 142.069 205.771 141.364L205.624 139.532C205.569 138.825 204.814 138.48 203.938 138.76L203.882 138.777C203.002 139.057 202.341 139.854 202.397 140.555L202.543 142.388C202.602 143.089 203.359 143.436 204.232 143.157L204.232 143.157ZM198.533 144.968L198.581 144.956C199.461 144.676 200.124 143.883 200.067 143.178L199.918 141.342C199.866 140.641 199.11 140.294 198.231 140.57L198.179 140.593C197.297 140.869 196.633 141.668 196.688 142.374L196.835 144.207L196.84 144.203C196.898 144.903 197.654 145.248 198.534 144.968L198.533 144.968ZM192.827 146.778L192.883 146.762C193.757 146.485 194.426 145.688 194.368 144.983L194.219 143.147C194.168 142.446 193.406 142.102 192.527 142.379L192.474 142.394C191.594 142.674 190.931 143.473 190.984 144.176L191.133 146.012C191.193 146.715 191.951 147.053 192.827 146.778V146.778ZM187.122 148.585L187.178 148.568C188.055 148.295 188.721 147.495 188.663 146.79L188.516 144.958C188.462 144.258 187.704 143.907 186.825 144.189L186.769 144.206C185.894 144.483 185.228 145.283 185.284 145.985L185.43 147.817C185.489 148.519 186.247 148.862 187.122 148.585L187.122 148.585ZM181.419 150.395L181.475 150.379C182.35 150.102 183.018 149.306 182.961 148.6L182.814 146.768C182.756 146.063 181.998 145.719 181.122 146L181.069 146.015C180.189 146.295 179.521 147.091 179.578 147.797L179.725 149.629C179.787 150.329 180.548 150.673 181.419 150.395V150.395ZM175.72 152.206L175.774 152.191C176.654 151.911 177.319 151.116 177.264 150.409L177.115 148.573C177.061 147.874 176.302 147.528 175.424 147.805L175.371 147.827C174.489 148.104 173.826 148.902 173.882 149.6L174.031 151.436C174.082 152.143 174.838 152.483 175.72 152.206L175.72 152.206ZM170.014 154.016L170.066 153.994C170.948 153.718 171.609 152.921 171.552 152.216L171.405 150.383C171.354 149.682 170.597 149.335 169.719 149.612L169.663 149.628C168.778 149.912 168.119 150.707 168.172 151.41L168.319 153.243C168.38 153.948 169.135 154.293 170.014 154.016L170.014 154.016ZM164.312 155.821L164.357 155.811C165.239 155.529 165.9 154.738 165.842 154.033L165.693 152.197C165.642 151.495 164.885 151.149 164.007 151.425L163.955 151.448C163.08 151.719 162.411 152.521 162.469 153.226L162.616 155.058L162.621 155.055C162.676 155.757 163.438 156.1 164.312 155.821L164.312 155.821ZM158.608 157.63L158.661 157.615C159.536 157.338 160.207 156.54 160.146 155.836L159.997 154C159.946 153.299 159.184 152.955 158.306 153.232L158.256 153.253C157.371 153.531 156.71 154.328 156.77 155.031L156.917 156.864C156.977 157.567 157.728 157.91 158.608 157.63L158.608 157.63ZM152.909 159.441L152.958 159.42C153.835 159.147 154.502 158.347 154.444 157.641L154.297 155.809C154.243 155.109 153.482 154.761 152.605 155.041L152.552 155.056C151.67 155.338 151.009 156.135 151.067 156.834L151.216 158.671C151.271 159.377 152.024 159.719 152.909 159.441L152.909 159.441ZM147.201 161.249L147.254 161.234C148.129 160.957 148.797 160.161 148.74 159.455L148.593 157.623C148.535 156.918 147.778 156.574 146.901 156.855L146.848 156.87C145.963 157.148 145.303 157.945 145.363 158.648L145.509 160.481C145.568 161.182 146.324 161.527 147.201 161.249V161.249ZM141.498 163.059L141.554 163.043C142.429 162.766 143.097 161.969 143.04 161.264L142.891 159.428C142.837 158.728 142.077 158.383 141.199 158.66L141.147 158.682C140.264 158.959 139.601 159.757 139.652 160.458L139.801 162.294C139.863 162.994 140.617 163.338 141.498 163.059L141.498 163.059ZM135.79 164.866L135.845 164.849C136.722 164.576 137.389 163.776 137.331 163.071L137.184 161.238C137.133 160.537 136.369 160.19 135.498 160.467L135.442 160.483C134.562 160.764 133.899 161.562 133.951 162.265L134.098 164.098C134.157 164.805 134.915 165.148 135.79 164.866L135.79 164.866Z"/>
<path d="M209.992 151.38C210.118 151.341 210.209 151.31 210.28 151.294C213.133 150.654 215.339 152.059 215.196 154.434C215.19 154.631 215.135 154.838 215.093 155.035C214.988 155.526 214.793 156.009 214.524 156.474C213.601 158.064 211.827 159.439 209.784 159.892C209.213 160.021 207.539 160.53 203.626 161.775L194.183 164.776C193.158 165.1 192.175 165.411 191.194 165.718C190.664 165.886 190.134 166.056 189.615 166.22C170.076 172.356 159.077 175.39 156.868 175.249C160.418 172.001 202.858 153.647 209.992 151.381L209.992 151.38Z"/>
</svg>
