<?xml version="1.0" encoding="UTF-8"?>
<svg xmlns="http://www.w3.org/2000/svg" xmlns:xlink="http://www.w3.org/1999/xlink" width="54px" height="54px" viewBox="0 0 54 54" version="1.1">
<g id="surface1">
<path style=" stroke:none;fill-rule:nonzero;fill:rgb(52.941176%,79.607843%,92.941176%);fill-opacity:1;" d="M 52.539062 14.183594 L 53.929688 16.105469 L 51.726562 16.066406 Z M 52.539062 14.183594 "/>
<path style=" stroke:none;fill-rule:nonzero;fill:rgb(31.764706%,50.980392%,87.843137%);fill-opacity:1;" d="M 52.539062 14.183594 L 53.929688 16.105469 L 51.726562 16.066406 Z M 52.539062 14.183594 "/>
<path style=" stroke:none;fill-rule:nonzero;fill:rgb(52.941176%,79.607843%,92.941176%);fill-opacity:1;" d="M 0.203125 4.40625 L 29.796875 2.101562 L 15.605469 14.363281 Z M 0.203125 4.40625 "/>
<path style=" stroke:none;fill-rule:nonzero;fill:rgb(31.764706%,50.980392%,87.843137%);fill-opacity:1;" d="M 0.203125 4.40625 L 29.796875 2.101562 L 15.605469 14.363281 Z M 0.203125 4.40625 "/>
<path style=" stroke:none;fill-rule:nonzero;fill:rgb(52.941176%,79.607843%,92.941176%);fill-opacity:1;" d="M 30.980469 3.199219 L 16.304688 15.980469 L 27.503906 25.957031 Z M 30.980469 3.199219 "/>
<path style=" stroke:none;fill-rule:nonzero;fill:rgb(31.764706%,50.980392%,87.843137%);fill-opacity:1;" d="M 30.980469 3.199219 L 16.304688 15.980469 L 27.503906 25.957031 Z M 30.980469 3.199219 "/>
<path style=" stroke:none;fill-rule:nonzero;fill:rgb(52.941176%,79.607843%,92.941176%);fill-opacity:1;" d="M 34.894531 3.71875 L 38.703125 0.136719 L 43.609375 14.140625 Z M 34.894531 3.71875 "/>
<path style=" stroke:none;fill-rule:nonzero;fill:rgb(31.764706%,50.980392%,87.843137%);fill-opacity:1;" d="M 34.894531 3.71875 L 38.703125 0.136719 L 43.609375 14.140625 Z M 34.894531 3.71875 "/>
<path style=" stroke:none;fill-rule:nonzero;fill:rgb(52.941176%,79.607843%,92.941176%);fill-opacity:1;" d="M 26.050781 31.351562 L 17.671875 53.847656 L 13.53125 43.09375 Z M 26.050781 31.351562 "/>
<path style=" stroke:none;fill-rule:nonzero;fill:rgb(31.764706%,50.980392%,87.843137%);fill-opacity:1;" d="M 26.050781 31.351562 L 17.671875 53.847656 L 13.53125 43.09375 Z M 26.050781 31.351562 "/>
<path style=" stroke:none;fill-rule:nonzero;fill:rgb(52.941176%,79.607843%,92.941176%);fill-opacity:1;" d="M 21.359375 33.824219 L 13.230469 36.113281 L 14.027344 39.84375 Z M 21.359375 33.824219 "/>
<path style=" stroke:none;fill-rule:nonzero;fill:rgb(31.764706%,50.980392%,87.843137%);fill-opacity:1;" d="M 21.359375 33.824219 L 13.230469 36.113281 L 14.027344 39.84375 Z M 21.359375 33.824219 "/>
<path style=" stroke:none;fill-rule:nonzero;fill:rgb(52.941176%,79.607843%,92.941176%);fill-opacity:1;" d="M 46.789062 23.601562 L 30.5625 28.65625 L 42.492188 32.46875 Z M 46.789062 23.601562 "/>
<path style=" stroke:none;fill-rule:nonzero;fill:rgb(31.764706%,50.980392%,87.843137%);fill-opacity:1;" d="M 46.789062 23.601562 L 30.5625 28.65625 L 42.492188 32.46875 Z M 46.789062 23.601562 "/>
<path style=" stroke:none;fill-rule:nonzero;fill:rgb(52.941176%,79.607843%,92.941176%);fill-opacity:1;" d="M 44 15.695312 L 47.671875 13 L 47.785156 20.535156 Z M 44 15.695312 "/>
<path style=" stroke:none;fill-rule:nonzero;fill:rgb(31.764706%,50.980392%,87.843137%);fill-opacity:1;" d="M 44 15.695312 L 47.671875 13 L 47.785156 20.535156 Z M 44 15.695312 "/>
<path style=" stroke:none;fill-rule:nonzero;fill:rgb(52.941176%,79.607843%,92.941176%);fill-opacity:1;" d="M 49.070312 12.113281 L 48.617188 19.90625 L 51.558594 13.035156 Z M 49.070312 12.113281 "/>
<path style=" stroke:none;fill-rule:nonzero;fill:rgb(31.764706%,50.980392%,87.843137%);fill-opacity:1;" d="M 49.070312 12.113281 L 48.617188 19.90625 L 51.558594 13.035156 Z M 49.070312 12.113281 "/>
<path style=" stroke:none;fill-rule:nonzero;fill:rgb(52.941176%,79.607843%,92.941176%);fill-opacity:1;" d="M 41.226562 33.871094 L 21.753906 47.089844 L 27.988281 30.355469 Z M 41.226562 33.871094 "/>
<path style=" stroke:none;fill-rule:nonzero;fill:rgb(31.764706%,50.980392%,87.843137%);fill-opacity:1;" d="M 41.226562 33.871094 L 21.753906 47.089844 L 27.988281 30.355469 Z M 41.226562 33.871094 "/>
<path style=" stroke:none;fill-rule:nonzero;fill:rgb(100%,100%,0%);fill-opacity:0.909804;" d="M 41.226562 33.871094 L 21.753906 47.089844 L 27.988281 30.355469 Z M 41.226562 33.871094 "/>
<path style=" stroke:none;fill-rule:nonzero;fill:rgb(52.941176%,79.607843%,92.941176%);fill-opacity:1;" d="M 28.460938 27.25 L 47.058594 21.828125 L 32.210938 2.71875 Z M 28.460938 27.25 "/>
<path style=" stroke:none;fill-rule:nonzero;fill:rgb(31.764706%,50.980392%,87.843137%);fill-opacity:1;" d="M 28.460938 27.25 L 47.058594 21.828125 L 32.210938 2.71875 Z M 28.460938 27.25 "/>
<path style=" stroke:none;fill-rule:nonzero;fill:rgb(100%,100%,0%);fill-opacity:0.909804;" d="M 28.460938 27.25 L 47.058594 21.828125 L 32.210938 2.71875 Z M 28.460938 27.25 "/>
</g>
</svg>
