<?xml version="1.0" encoding="UTF-8"?>
<svg xmlns="http://www.w3.org/2000/svg" xmlns:xlink="http://www.w3.org/1999/xlink" width="172px" height="85px" viewBox="0 0 171 85" version="1.1">
<g id="surface1">
<path style=" stroke:none;fill-rule:nonzero;fill:rgb(52.941176%,79.607843%,92.941176%);fill-opacity:1;" d="M 166.0625 29.960938 L 168.410156 32.054688 L 164.6875 32.011719 Z M 166.0625 29.960938 "/>
<path style=" stroke:none;fill-rule:nonzero;fill:rgb(31.764706%,50.980392%,87.843137%);fill-opacity:1;" d="M 166.0625 29.960938 L 168.410156 32.054688 L 164.6875 32.011719 Z M 166.0625 29.960938 "/>
<path style=" stroke:none;fill-rule:nonzero;fill:rgb(52.941176%,79.607843%,92.941176%);fill-opacity:1;" d="M 77.558594 19.320312 L 127.601562 16.808594 L 103.601562 30.160156 Z M 77.558594 19.320312 "/>
<path style=" stroke:none;fill-rule:nonzero;fill:rgb(31.764706%,50.980392%,87.843137%);fill-opacity:1;" d="M 77.558594 19.320312 L 127.601562 16.808594 L 103.601562 30.160156 Z M 77.558594 19.320312 "/>
<path style=" stroke:none;fill-rule:nonzero;fill:rgb(52.941176%,79.607843%,92.941176%);fill-opacity:1;" d="M 129.601562 18.003906 L 104.785156 31.917969 L 123.726562 42.78125 Z M 129.601562 18.003906 "/>
<path style=" stroke:none;fill-rule:nonzero;fill:rgb(31.764706%,50.980392%,87.843137%);fill-opacity:1;" d="M 129.601562 18.003906 L 104.785156 31.917969 L 123.726562 42.78125 Z M 129.601562 18.003906 "/>
<path style=" stroke:none;fill-rule:nonzero;fill:rgb(52.941176%,79.607843%,92.941176%);fill-opacity:1;" d="M 136.226562 18.570312 L 142.664062 14.667969 L 150.957031 29.917969 Z M 136.226562 18.570312 "/>
<path style=" stroke:none;fill-rule:nonzero;fill:rgb(31.764706%,50.980392%,87.843137%);fill-opacity:1;" d="M 136.226562 18.570312 L 142.664062 14.667969 L 150.957031 29.917969 Z M 136.226562 18.570312 "/>
<path style=" stroke:none;fill-rule:nonzero;fill:rgb(52.941176%,79.607843%,92.941176%);fill-opacity:1;" d="M 121.265625 48.65625 L 107.097656 73.148438 L 100.09375 61.441406 Z M 121.265625 48.65625 "/>
<path style=" stroke:none;fill-rule:nonzero;fill:rgb(31.764706%,50.980392%,87.843137%);fill-opacity:1;" d="M 121.265625 48.65625 L 107.097656 73.148438 L 100.09375 61.441406 Z M 121.265625 48.65625 "/>
<path style=" stroke:none;fill-rule:nonzero;fill:rgb(52.941176%,79.607843%,92.941176%);fill-opacity:1;" d="M 113.335938 51.347656 L 99.589844 53.835938 L 100.933594 57.902344 Z M 113.335938 51.347656 "/>
<path style=" stroke:none;fill-rule:nonzero;fill:rgb(31.764706%,50.980392%,87.843137%);fill-opacity:1;" d="M 113.335938 51.347656 L 99.589844 53.835938 L 100.933594 57.902344 Z M 113.335938 51.347656 "/>
<path style=" stroke:none;fill-rule:nonzero;fill:rgb(52.941176%,79.607843%,92.941176%);fill-opacity:1;" d="M 156.339844 40.214844 L 128.894531 45.71875 L 149.070312 49.867188 Z M 156.339844 40.214844 "/>
<path style=" stroke:none;fill-rule:nonzero;fill:rgb(31.764706%,50.980392%,87.843137%);fill-opacity:1;" d="M 156.339844 40.214844 L 128.894531 45.71875 L 149.070312 49.867188 Z M 156.339844 40.214844 "/>
<path style=" stroke:none;fill-rule:nonzero;fill:rgb(52.941176%,79.607843%,92.941176%);fill-opacity:1;" d="M 151.625 31.605469 L 157.832031 28.671875 L 158.019531 36.878906 Z M 151.625 31.605469 "/>
<path style=" stroke:none;fill-rule:nonzero;fill:rgb(31.764706%,50.980392%,87.843137%);fill-opacity:1;" d="M 151.625 31.605469 L 157.832031 28.671875 L 158.019531 36.878906 Z M 151.625 31.605469 "/>
<path style=" stroke:none;fill-rule:nonzero;fill:rgb(52.941176%,79.607843%,92.941176%);fill-opacity:1;" d="M 160.195312 27.707031 L 159.425781 36.195312 L 164.402344 28.714844 Z M 160.195312 27.707031 "/>
<path style=" stroke:none;fill-rule:nonzero;fill:rgb(31.764706%,50.980392%,87.843137%);fill-opacity:1;" d="M 160.195312 27.707031 L 159.425781 36.195312 L 164.402344 28.714844 Z M 160.195312 27.707031 "/>
<path style=" stroke:none;fill-rule:nonzero;fill:rgb(52.941176%,79.607843%,92.941176%);fill-opacity:1;" d="M 146.929688 51.398438 L 114 65.789062 L 124.546875 47.570312 Z M 146.929688 51.398438 "/>
<path style=" stroke:none;fill-rule:nonzero;fill:rgb(31.764706%,50.980392%,87.843137%);fill-opacity:1;" d="M 146.929688 51.398438 L 114 65.789062 L 124.546875 47.570312 Z M 146.929688 51.398438 "/>
<path style=" stroke:none;fill-rule:nonzero;fill:rgb(100%,100%,0%);fill-opacity:0.909804;" d="M 146.929688 51.398438 L 114 65.789062 L 124.546875 47.570312 Z M 146.929688 51.398438 "/>
<path style=" stroke:none;fill-rule:nonzero;fill:rgb(52.941176%,79.607843%,92.941176%);fill-opacity:1;" d="M 125.347656 44.191406 L 156.796875 38.285156 L 131.683594 17.480469 Z M 125.347656 44.191406 "/>
<path style=" stroke:none;fill-rule:nonzero;fill:rgb(31.764706%,50.980392%,87.843137%);fill-opacity:1;" d="M 125.347656 44.191406 L 156.796875 38.285156 L 131.683594 17.480469 Z M 125.347656 44.191406 "/>
<path style=" stroke:none;fill-rule:nonzero;fill:rgb(100%,100%,0%);fill-opacity:0.909804;" d="M 125.347656 44.191406 L 156.796875 38.285156 L 131.683594 17.480469 Z M 125.347656 44.191406 "/>
<path style=" stroke:none;fill-rule:nonzero;fill:rgb(100%,100%,100%);fill-opacity:1;" d="M 2.085938 73.070312 C 1.695312 73.070312 1.351562 73.042969 1.050781 72.980469 C 0.757812 72.921875 0.476562 72.828125 0.214844 72.710938 L 0.214844 71.710938 C 0.363281 71.785156 0.535156 71.863281 0.722656 71.9375 C 0.910156 72.015625 1.117188 72.074219 1.34375 72.121094 C 1.574219 72.164062 1.828125 72.1875 2.097656 72.1875 C 2.355469 72.1875 2.59375 72.160156 2.820312 72.109375 C 3.046875 72.046875 3.246094 71.957031 3.417969 71.835938 C 3.589844 71.707031 3.726562 71.550781 3.824219 71.359375 C 3.929688 71.171875 3.984375 70.949219 3.984375 70.691406 C 3.984375 70.488281 3.9375 70.304688 3.847656 70.148438 C 3.765625 69.988281 3.625 69.835938 3.429688 69.683594 C 3.234375 69.523438 2.976562 69.355469 2.652344 69.171875 C 2.367188 69 2.109375 68.820312 1.882812 68.640625 C 1.667969 68.453125 1.492188 68.234375 1.363281 67.996094 C 1.246094 67.746094 1.183594 67.445312 1.183594 67.097656 C 1.183594 66.722656 1.253906 66.390625 1.386719 66.101562 C 1.53125 65.8125 1.722656 65.570312 1.964844 65.363281 C 2.210938 65.160156 2.492188 65.011719 2.808594 64.910156 C 3.132812 64.804688 3.476562 64.753906 3.835938 64.753906 C 4.257812 64.753906 4.625 64.792969 4.941406 64.878906 C 5.265625 64.960938 5.570312 65.078125 5.855469 65.230469 L 5.472656 66.089844 C 5.277344 65.984375 5.03125 65.886719 4.738281 65.796875 C 4.445312 65.699219 4.144531 65.648438 3.835938 65.648438 C 3.601562 65.648438 3.386719 65.679688 3.191406 65.738281 C 3.003906 65.800781 2.839844 65.890625 2.695312 66.011719 C 2.5625 66.132812 2.453125 66.277344 2.371094 66.453125 C 2.292969 66.617188 2.257812 66.8125 2.257812 67.03125 C 2.257812 67.257812 2.296875 67.449219 2.378906 67.609375 C 2.464844 67.761719 2.589844 67.898438 2.765625 68.027344 C 2.9375 68.148438 3.152344 68.289062 3.40625 68.449219 C 3.730469 68.644531 4.011719 68.835938 4.253906 69.027344 C 4.5 69.214844 4.695312 69.433594 4.828125 69.683594 C 4.972656 69.933594 5.042969 70.242188 5.042969 70.613281 C 5.042969 71.019531 4.972656 71.378906 4.828125 71.6875 C 4.695312 71.992188 4.496094 72.246094 4.230469 72.449219 C 3.976562 72.652344 3.664062 72.808594 3.292969 72.914062 C 2.933594 73.019531 2.53125 73.070312 2.085938 73.070312 Z M 6.011719 72.957031 L 7.296875 66.882812 L 8.292969 66.882812 L 7.003906 72.957031 Z M 8.097656 65.875 C 7.941406 65.875 7.808594 65.828125 7.703125 65.738281 C 7.605469 65.640625 7.558594 65.507812 7.558594 65.34375 C 7.558594 65.214844 7.585938 65.097656 7.636719 64.992188 C 7.691406 64.878906 7.765625 64.785156 7.863281 64.71875 C 7.960938 64.652344 8.082031 64.617188 8.222656 64.617188 C 8.398438 64.617188 8.523438 64.664062 8.605469 64.753906 C 8.699219 64.84375 8.742188 64.96875 8.742188 65.128906 C 8.742188 65.359375 8.675781 65.546875 8.539062 65.683594 C 8.402344 65.8125 8.257812 65.875 8.097656 65.875 Z M 8.910156 72.957031 L 10.726562 64.34375 L 11.730469 64.34375 L 10.996094 67.769531 C 10.867188 68.371094 10.757812 68.839844 10.660156 69.171875 C 10.566406 69.496094 10.503906 69.714844 10.464844 69.820312 L 10.488281 69.820312 L 13.355469 66.882812 L 14.527344 66.882812 L 11.933594 69.492188 L 13.546875 72.957031 L 12.453125 72.957031 L 11.175781 70.113281 L 10.363281 70.757812 L 9.914062 72.957031 Z M 16.769531 73.050781 C 16.300781 73.050781 15.898438 72.953125 15.5625 72.765625 C 15.222656 72.578125 14.964844 72.308594 14.785156 71.960938 C 14.601562 71.605469 14.511719 71.191406 14.511719 70.714844 C 14.511719 70.34375 14.554688 69.972656 14.636719 69.605469 C 14.71875 69.226562 14.839844 68.871094 14.996094 68.539062 C 15.164062 68.207031 15.367188 67.910156 15.605469 67.65625 C 15.847656 67.390625 16.128906 67.183594 16.453125 67.03125 C 16.777344 66.878906 17.136719 66.804688 17.535156 66.804688 C 18.011719 66.804688 18.414062 66.898438 18.742188 67.085938 C 19.082031 67.277344 19.339844 67.546875 19.523438 67.902344 C 19.703125 68.25 19.792969 68.667969 19.792969 69.148438 C 19.792969 69.519531 19.75 69.890625 19.667969 70.261719 C 19.585938 70.632812 19.460938 70.988281 19.296875 71.328125 C 19.136719 71.660156 18.9375 71.953125 18.699219 72.210938 C 18.457031 72.46875 18.175781 72.671875 17.851562 72.824219 C 17.527344 72.972656 17.167969 73.050781 16.769531 73.050781 Z M 16.824219 72.222656 C 17.042969 72.222656 17.246094 72.175781 17.433594 72.085938 C 17.628906 71.996094 17.8125 71.863281 17.976562 71.6875 C 18.140625 71.507812 18.28125 71.289062 18.394531 71.03125 C 18.515625 70.765625 18.609375 70.46875 18.675781 70.136719 C 18.742188 69.804688 18.777344 69.4375 18.777344 69.035156 C 18.777344 68.808594 18.734375 68.589844 18.652344 68.378906 C 18.578125 68.160156 18.449219 67.984375 18.269531 67.847656 C 18.089844 67.703125 17.847656 67.632812 17.546875 67.632812 C 17.300781 67.632812 17.070312 67.683594 16.859375 67.789062 C 16.648438 67.894531 16.460938 68.046875 16.296875 68.242188 C 16.128906 68.433594 15.988281 68.660156 15.867188 68.921875 C 15.753906 69.179688 15.667969 69.464844 15.605469 69.773438 C 15.546875 70.082031 15.515625 70.410156 15.515625 70.75 C 15.515625 71.21875 15.628906 71.578125 15.855469 71.835938 C 16.089844 72.09375 16.410156 72.222656 16.824219 72.222656 Z M 20.644531 72.957031 L 21.929688 66.882812 L 22.742188 66.882812 L 22.617188 68.003906 L 22.675781 68.003906 C 22.832031 67.792969 23 67.597656 23.171875 67.417969 C 23.34375 67.226562 23.539062 67.074219 23.757812 66.953125 C 23.976562 66.832031 24.226562 66.769531 24.515625 66.769531 C 24.621094 66.769531 24.726562 66.777344 24.839844 66.792969 C 24.960938 66.800781 25.070312 66.820312 25.167969 66.851562 L 24.953125 67.746094 C 24.855469 67.722656 24.757812 67.707031 24.660156 67.699219 C 24.570312 67.683594 24.476562 67.675781 24.378906 67.675781 C 24.101562 67.675781 23.839844 67.753906 23.601562 67.902344 C 23.367188 68.046875 23.15625 68.238281 22.96875 68.480469 C 22.789062 68.722656 22.632812 68.992188 22.503906 69.285156 C 22.378906 69.582031 22.285156 69.878906 22.222656 70.183594 L 21.636719 72.957031 Z M 26.574219 73.070312 C 26.203125 73.070312 25.878906 73.035156 25.601562 72.957031 C 25.332031 72.890625 25.089844 72.800781 24.878906 72.6875 L 24.878906 71.769531 C 25.074219 71.890625 25.320312 72.003906 25.613281 72.109375 C 25.914062 72.207031 26.222656 72.253906 26.539062 72.253906 C 26.839844 72.253906 27.085938 72.21875 27.285156 72.140625 C 27.488281 72.058594 27.640625 71.945312 27.746094 71.800781 C 27.851562 71.660156 27.902344 71.492188 27.902344 71.304688 C 27.902344 71.152344 27.875 71.023438 27.8125 70.917969 C 27.753906 70.804688 27.648438 70.695312 27.496094 70.589844 C 27.355469 70.476562 27.152344 70.347656 26.886719 70.203125 C 26.601562 70.039062 26.363281 69.875 26.167969 69.71875 C 25.976562 69.550781 25.835938 69.371094 25.738281 69.171875 C 25.640625 68.976562 25.589844 68.75 25.589844 68.492188 C 25.589844 68.144531 25.671875 67.84375 25.839844 67.585938 C 26.011719 67.328125 26.253906 67.128906 26.5625 66.984375 C 26.871094 66.84375 27.230469 66.769531 27.644531 66.769531 C 28.011719 66.769531 28.351562 66.816406 28.660156 66.90625 C 28.976562 66.988281 29.246094 67.082031 29.472656 67.191406 L 29.15625 67.984375 C 28.960938 67.890625 28.742188 67.808594 28.5 67.734375 C 28.261719 67.652344 27.976562 67.609375 27.644531 67.609375 C 27.320312 67.609375 27.0625 67.6875 26.867188 67.847656 C 26.675781 68 26.582031 68.195312 26.582031 68.4375 C 26.582031 68.566406 26.609375 68.683594 26.664062 68.789062 C 26.714844 68.894531 26.8125 69.003906 26.957031 69.117188 C 27.105469 69.222656 27.3125 69.351562 27.578125 69.5 C 27.832031 69.652344 28.0625 69.804688 28.265625 69.953125 C 28.46875 70.105469 28.625 70.28125 28.738281 70.476562 C 28.859375 70.671875 28.917969 70.914062 28.917969 71.203125 C 28.917969 71.609375 28.820312 71.953125 28.625 72.234375 C 28.4375 72.511719 28.167969 72.722656 27.8125 72.867188 C 27.460938 73.003906 27.046875 73.070312 26.574219 73.070312 Z M 30 72.957031 L 31.816406 64.34375 L 32.820312 64.34375 L 32.085938 67.769531 C 31.957031 68.371094 31.84375 68.839844 31.746094 69.171875 C 31.65625 69.496094 31.59375 69.714844 31.554688 69.820312 L 31.578125 69.820312 L 34.445312 66.882812 L 35.617188 66.882812 L 33.023438 69.492188 L 34.636719 72.957031 L 33.539062 72.957031 L 32.265625 70.113281 L 31.453125 70.757812 L 31.003906 72.957031 Z M 34.996094 75.679688 C 34.816406 75.679688 34.671875 75.667969 34.558594 75.644531 C 34.4375 75.621094 34.324219 75.59375 34.21875 75.566406 L 34.21875 74.761719 C 34.324219 74.789062 34.4375 74.8125 34.558594 74.828125 C 34.679688 74.851562 34.804688 74.863281 34.941406 74.863281 C 35.25 74.863281 35.507812 74.769531 35.71875 74.578125 C 35.9375 74.390625 36.144531 74.113281 36.339844 73.75 L 36.734375 73.050781 L 35.820312 66.882812 L 36.8125 66.882812 L 37.210938 69.886719 C 37.246094 70.128906 37.273438 70.398438 37.289062 70.691406 C 37.3125 70.980469 37.324219 71.253906 37.332031 71.519531 C 37.347656 71.777344 37.355469 71.984375 37.355469 72.140625 L 37.390625 72.140625 C 37.441406 72.023438 37.515625 71.839844 37.617188 71.597656 C 37.71875 71.355469 37.832031 71.105469 37.953125 70.851562 C 38.074219 70.59375 38.179688 70.382812 38.269531 70.214844 L 40.03125 66.882812 L 41.089844 66.882812 L 37.253906 73.976562 C 37.050781 74.355469 36.84375 74.667969 36.632812 74.917969 C 36.421875 75.175781 36.1875 75.363281 35.921875 75.484375 C 35.660156 75.613281 35.351562 75.679688 34.996094 75.679688 Z M 42.832031 72.957031 L 47.210938 64.867188 L 48.273438 64.867188 L 49.265625 72.957031 L 48.273438 72.957031 L 47.96875 70.441406 L 45.25 70.441406 L 43.941406 72.957031 Z M 45.734375 69.535156 L 47.867188 69.535156 L 47.6875 67.835938 C 47.65625 67.546875 47.625 67.230469 47.59375 66.882812 C 47.574219 66.535156 47.558594 66.230469 47.550781 65.964844 L 47.515625 65.964844 C 47.394531 66.253906 47.257812 66.5625 47.097656 66.894531 C 46.941406 67.21875 46.773438 67.546875 46.601562 67.882812 Z M 50.128906 72.957031 L 51.414062 66.882812 L 52.40625 66.882812 L 51.121094 72.957031 Z M 52.214844 65.875 C 52.058594 65.875 51.925781 65.828125 51.820312 65.738281 C 51.722656 65.640625 51.675781 65.507812 51.675781 65.34375 C 51.675781 65.214844 51.699219 65.097656 51.753906 64.992188 C 51.804688 64.878906 51.882812 64.785156 51.980469 64.71875 C 52.078125 64.652344 52.195312 64.617188 52.339844 64.617188 C 52.511719 64.617188 52.640625 64.664062 52.722656 64.753906 C 52.8125 64.84375 52.859375 64.96875 52.859375 65.128906 C 52.859375 65.359375 52.792969 65.546875 52.65625 65.683594 C 52.519531 65.8125 52.375 65.875 52.214844 65.875 Z M 53.039062 72.957031 L 54.324219 66.882812 L 55.136719 66.882812 L 55.011719 68.003906 L 55.066406 68.003906 C 55.226562 67.792969 55.390625 67.597656 55.5625 67.417969 C 55.738281 67.226562 55.933594 67.074219 56.152344 66.953125 C 56.371094 66.832031 56.621094 66.769531 56.90625 66.769531 C 57.011719 66.769531 57.121094 66.777344 57.234375 66.792969 C 57.355469 66.800781 57.464844 66.820312 57.5625 66.851562 L 57.347656 67.746094 C 57.25 67.722656 57.152344 67.707031 57.054688 67.699219 C 56.964844 67.683594 56.871094 67.675781 56.773438 67.675781 C 56.492188 67.675781 56.234375 67.753906 55.992188 67.902344 C 55.761719 68.046875 55.550781 68.238281 55.363281 68.480469 C 55.179688 68.722656 55.027344 68.992188 54.898438 69.285156 C 54.769531 69.582031 54.675781 69.878906 54.617188 70.183594 L 54.03125 72.957031 Z M 56.96875 75.679688 L 58.820312 66.882812 L 59.632812 66.882812 L 59.496094 68.015625 L 59.539062 68.015625 C 59.722656 67.789062 59.914062 67.585938 60.117188 67.40625 C 60.320312 67.214844 60.542969 67.066406 60.78125 66.953125 C 61.023438 66.839844 61.28125 66.78125 61.558594 66.78125 C 61.882812 66.78125 62.167969 66.859375 62.40625 67.019531 C 62.65625 67.171875 62.847656 67.402344 62.980469 67.710938 C 63.125 68.011719 63.195312 68.394531 63.195312 68.855469 C 63.195312 69.300781 63.152344 69.730469 63.0625 70.148438 C 62.976562 70.5625 62.851562 70.949219 62.675781 71.304688 C 62.511719 71.652344 62.308594 71.960938 62.066406 72.234375 C 61.835938 72.496094 61.5625 72.707031 61.253906 72.855469 C 60.949219 73 60.613281 73.070312 60.25 73.070312 C 59.980469 73.070312 59.742188 73.023438 59.539062 72.925781 C 59.34375 72.828125 59.179688 72.699219 59.042969 72.539062 C 58.910156 72.378906 58.796875 72.210938 58.707031 72.027344 L 58.648438 72.027344 C 58.640625 72.148438 58.625 72.320312 58.59375 72.539062 C 58.5625 72.75 58.53125 72.925781 58.503906 73.058594 L 57.949219 75.679688 Z M 60.171875 72.246094 C 60.414062 72.246094 60.636719 72.183594 60.839844 72.0625 C 61.050781 71.933594 61.238281 71.761719 61.402344 71.542969 C 61.566406 71.316406 61.707031 71.058594 61.820312 70.769531 C 61.941406 70.476562 62.03125 70.167969 62.089844 69.839844 C 62.152344 69.507812 62.179688 69.171875 62.179688 68.832031 C 62.179688 68.425781 62.097656 68.117188 61.933594 67.914062 C 61.773438 67.710938 61.539062 67.609375 61.222656 67.609375 C 61.054688 67.609375 60.886719 67.652344 60.714844 67.734375 C 60.542969 67.816406 60.371094 67.9375 60.207031 68.097656 C 60.042969 68.246094 59.886719 68.429688 59.742188 68.640625 C 59.601562 68.851562 59.472656 69.085938 59.359375 69.34375 C 59.253906 69.59375 59.171875 69.859375 59.113281 70.148438 C 59.050781 70.425781 59.023438 70.71875 59.023438 71.019531 C 59.023438 71.382812 59.117188 71.675781 59.304688 71.90625 C 59.492188 72.132812 59.78125 72.246094 60.171875 72.246094 Z M 66.546875 73.050781 C 66.082031 73.050781 65.679688 72.953125 65.339844 72.765625 C 65.003906 72.578125 64.742188 72.308594 64.5625 71.960938 C 64.382812 71.605469 64.292969 71.191406 64.292969 70.714844 C 64.292969 70.34375 64.332031 69.972656 64.417969 69.605469 C 64.5 69.226562 64.621094 68.871094 64.777344 68.539062 C 64.941406 68.207031 65.144531 67.910156 65.386719 67.65625 C 65.628906 67.390625 65.910156 67.183594 66.234375 67.03125 C 66.554688 66.878906 66.917969 66.804688 67.316406 66.804688 C 67.789062 66.804688 68.191406 66.898438 68.523438 67.085938 C 68.863281 67.277344 69.121094 67.546875 69.300781 67.902344 C 69.480469 68.25 69.574219 68.667969 69.574219 69.148438 C 69.574219 69.519531 69.53125 69.890625 69.449219 70.261719 C 69.367188 70.632812 69.242188 70.988281 69.074219 71.328125 C 68.917969 71.660156 68.71875 71.953125 68.476562 72.210938 C 68.238281 72.46875 67.953125 72.671875 67.632812 72.824219 C 67.308594 72.972656 66.945312 73.050781 66.546875 73.050781 Z M 66.605469 72.222656 C 66.824219 72.222656 67.027344 72.175781 67.214844 72.085938 C 67.410156 71.996094 67.589844 71.863281 67.753906 71.6875 C 67.921875 71.507812 68.058594 71.289062 68.171875 71.03125 C 68.292969 70.765625 68.386719 70.46875 68.457031 70.136719 C 68.523438 69.804688 68.558594 69.4375 68.558594 69.035156 C 68.558594 68.808594 68.515625 68.589844 68.433594 68.378906 C 68.355469 68.160156 68.230469 67.984375 68.050781 67.847656 C 67.867188 67.703125 67.628906 67.632812 67.328125 67.632812 C 67.078125 67.632812 66.847656 67.683594 66.640625 67.789062 C 66.429688 67.894531 66.238281 68.046875 66.074219 68.242188 C 65.910156 68.433594 65.765625 68.660156 65.644531 68.921875 C 65.53125 69.179688 65.445312 69.464844 65.386719 69.773438 C 65.328125 70.082031 65.296875 70.410156 65.296875 70.75 C 65.296875 71.21875 65.410156 71.578125 65.632812 71.835938 C 65.867188 72.09375 66.191406 72.222656 66.605469 72.222656 Z M 70.421875 72.957031 L 71.710938 66.882812 L 72.523438 66.882812 L 72.398438 68.003906 L 72.453125 68.003906 C 72.613281 67.792969 72.777344 67.597656 72.949219 67.417969 C 73.125 67.226562 73.320312 67.074219 73.539062 66.953125 C 73.753906 66.832031 74.007812 66.769531 74.292969 66.769531 C 74.398438 66.769531 74.507812 66.777344 74.621094 66.792969 C 74.742188 66.800781 74.851562 66.820312 74.949219 66.851562 L 74.734375 67.746094 C 74.636719 67.722656 74.539062 67.707031 74.441406 67.699219 C 74.351562 67.683594 74.257812 67.675781 74.160156 67.675781 C 73.878906 67.675781 73.621094 67.753906 73.378906 67.902344 C 73.144531 68.046875 72.9375 68.238281 72.746094 68.480469 C 72.566406 68.722656 72.414062 68.992188 72.285156 69.285156 C 72.15625 69.582031 72.0625 69.878906 72.003906 70.183594 L 71.417969 72.957031 Z M 76.691406 73.070312 C 76.285156 73.070312 75.941406 72.972656 75.664062 72.777344 C 75.386719 72.582031 75.246094 72.238281 75.246094 71.746094 C 75.246094 71.632812 75.253906 71.507812 75.269531 71.371094 C 75.292969 71.226562 75.316406 71.085938 75.347656 70.941406 L 76.035156 67.644531 L 75.101562 67.644531 L 75.191406 67.191406 L 76.207031 66.757812 L 76.90625 65.5 L 77.492188 65.5 L 77.1875 66.882812 L 78.710938 66.882812 L 78.550781 67.644531 L 77.039062 67.644531 L 76.339844 70.953125 C 76.316406 71.050781 76.296875 71.164062 76.273438 71.292969 C 76.25 71.414062 76.238281 71.527344 76.238281 71.632812 C 76.238281 71.804688 76.285156 71.953125 76.375 72.074219 C 76.472656 72.195312 76.625 72.253906 76.835938 72.253906 C 76.972656 72.253906 77.105469 72.246094 77.230469 72.222656 C 77.359375 72.191406 77.496094 72.152344 77.636719 72.109375 L 77.636719 72.867188 C 77.546875 72.914062 77.410156 72.957031 77.222656 73.003906 C 77.03125 73.050781 76.855469 73.070312 76.691406 73.070312 Z M 76.691406 73.070312 "/>
<path style=" stroke:none;fill-rule:nonzero;fill:rgb(100%,99.607843%,99.607843%);fill-opacity:1;" d="M 1.171875 62.6875 L 7.988281 30.320312 L 14.710938 30.320312 L 11.328125 45.960938 L 14.757812 41.335938 L 23.875 30.320312 L 31.816406 30.320312 L 18.730469 45.824219 L 25.136719 62.6875 L 17.691406 62.6875 L 13.042969 49.585938 L 10.289062 51.128906 L 7.898438 62.6875 Z M 34.355469 62.6875 L 36.972656 50.3125 L 31.785156 30.320312 L 38.644531 30.320312 L 41.488281 43.421875 L 49.746094 30.320312 L 57.28125 30.320312 L 43.652344 50.3125 L 41.035156 62.6875 Z M 51.84375 62.6875 L 52.65625 58.789062 L 56.761719 56.976562 L 61.183594 36.03125 L 57.84375 34.21875 L 58.65625 30.320312 L 72.917969 30.320312 L 72.105469 34.21875 L 67.910156 36.03125 L 63.484375 56.976562 L 66.914062 58.789062 L 66.101562 62.6875 Z M 77.285156 62.6875 L 74.488281 30.320312 L 80.988281 30.320312 L 82.117188 49.8125 C 82.144531 50.417969 82.160156 51.097656 82.160156 51.851562 C 82.191406 52.609375 82.191406 53.363281 82.160156 54.121094 C 82.160156 54.84375 82.132812 55.496094 82.070312 56.070312 L 82.25 56.070312 C 82.460938 55.402344 82.6875 54.722656 82.929688 54.027344 C 83.199219 53.332031 83.46875 52.640625 83.742188 51.945312 C 84.042969 51.21875 84.355469 50.507812 84.6875 49.8125 L 94.164062 30.320312 L 101.117188 30.320312 L 84.644531 62.6875 Z M 77.285156 62.6875 "/>
</g>
</svg>
