<?xml version="1.0" encoding="UTF-8"?>
<svg xmlns="http://www.w3.org/2000/svg" xmlns:xlink="http://www.w3.org/1999/xlink" width="50px" height="50px" viewBox="0 0 50 50" version="1.1">
<defs>
<filter id="alpha" filterUnits="objectBoundingBox" x="0%" y="0%" width="100%" height="100%">
  <feColorMatrix type="matrix" in="SourceGraphic" values="0 0 0 0 1 0 0 0 0 1 0 0 0 0 1 0 0 0 1 0"/>
</filter>
<mask id="mask0">
  <g filter="url(#alpha)">
<rect x="0" y="0" width="50" height="50" style="fill:rgb(0%,0%,0%);fill-opacity:0.101961;stroke:none;"/>
  </g>
</mask>
<clipPath id="clip1">
  <rect x="0" y="0" width="50" height="50"/>
</clipPath>
<g id="surface5" clip-path="url(#clip1)">
<path style=" stroke:none;fill-rule:nonzero;fill:rgb(0%,0%,0%);fill-opacity:1;" d="M 4.332031 9.886719 L 4.488281 11.4375 L 17.613281 11.4375 L 17.769531 9.886719 Z M 4.332031 9.886719 "/>
</g>
<mask id="mask1">
  <g filter="url(#alpha)">
<rect x="0" y="0" width="50" height="50" style="fill:rgb(0%,0%,0%);fill-opacity:0.2;stroke:none;"/>
  </g>
</mask>
<clipPath id="clip2">
  <rect x="0" y="0" width="50" height="50"/>
</clipPath>
<g id="surface8" clip-path="url(#clip2)">
<path style=" stroke:none;fill-rule:nonzero;fill:rgb(0%,0%,0%);fill-opacity:1;" d="M 4.558594 12.128906 L 4.765625 14.175781 C 4.820312 14.742188 5.332031 15.203125 5.902344 15.203125 L 16.199219 15.203125 C 16.769531 15.203125 17.28125 14.742188 17.335938 14.175781 L 17.542969 12.128906 Z M 4.558594 12.128906 "/>
</g>
<mask id="mask2">
  <g filter="url(#alpha)">
<rect x="0" y="0" width="50" height="50" style="fill:rgb(0%,0%,0%);fill-opacity:0.2;stroke:none;"/>
  </g>
</mask>
<clipPath id="clip3">
  <rect x="0" y="0" width="50" height="50"/>
</clipPath>
<g id="surface11" clip-path="url(#clip3)">
<path style=" stroke:none;fill-rule:nonzero;fill:rgb(0%,0%,0%);fill-opacity:1;" d="M 6.617188 20.757812 L 15.480469 20.757812 L 15.480469 25.515625 L 6.617188 25.515625 Z M 6.617188 20.757812 "/>
</g>
<mask id="mask3">
  <g filter="url(#alpha)">
<rect x="0" y="0" width="50" height="50" style="fill:rgb(0%,0%,0%);fill-opacity:0.101961;stroke:none;"/>
  </g>
</mask>
<clipPath id="clip4">
  <rect x="0" y="0" width="50" height="50"/>
</clipPath>
<g id="surface14" clip-path="url(#clip4)">
<path style=" stroke:none;fill-rule:nonzero;fill:rgb(0%,0%,0%);fill-opacity:1;" d="M 10.273438 15.984375 L 11.824219 15.984375 L 11.824219 19.96875 L 10.273438 19.96875 Z M 10.273438 15.984375 "/>
</g>
<mask id="mask4">
  <g filter="url(#alpha)">
<rect x="0" y="0" width="50" height="50" style="fill:rgb(0%,0%,0%);fill-opacity:0.101961;stroke:none;"/>
  </g>
</mask>
<clipPath id="clip5">
  <rect x="0" y="0" width="50" height="50"/>
</clipPath>
<g id="surface17" clip-path="url(#clip5)">
<path style=" stroke:none;fill-rule:nonzero;fill:rgb(0%,0%,0%);fill-opacity:1;" d="M 5.515625 15.984375 L 7.066406 15.984375 L 7.066406 19.96875 L 5.515625 19.96875 Z M 5.515625 15.984375 "/>
</g>
<mask id="mask5">
  <g filter="url(#alpha)">
<rect x="0" y="0" width="50" height="50" style="fill:rgb(0%,0%,0%);fill-opacity:0.101961;stroke:none;"/>
  </g>
</mask>
<clipPath id="clip6">
  <rect x="0" y="0" width="50" height="50"/>
</clipPath>
<g id="surface20" clip-path="url(#clip6)">
<path style=" stroke:none;fill-rule:nonzero;fill:rgb(0%,0%,0%);fill-opacity:1;" d="M 15.035156 15.984375 L 16.585938 15.984375 L 16.585938 19.96875 L 15.035156 19.96875 Z M 15.035156 15.984375 "/>
</g>
</defs>
<g id="surface1">
<path style=" stroke:none;fill-rule:nonzero;fill:rgb(0%,70.196078%,89.019608%);fill-opacity:1;" d="M 22.488281 2.835938 C 24.59375 2.835938 26.507812 3.632812 27.949219 4.945312 C 28.71875 4.628906 29.558594 4.449219 30.441406 4.449219 C 33.78125 4.449219 36.535156 6.972656 36.902344 10.214844 C 36.929688 10.457031 36.984375 10.957031 36.285156 10.957031 C 35.65625 10.957031 18.609375 10.957031 15.023438 10.957031 C 14.601562 10.957031 14.378906 10.417969 14.40625 10.152344 C 14.808594 6.046875 18.273438 2.835938 22.488281 2.835938 Z M 22.488281 2.835938 "/>
<path style=" stroke:none;fill-rule:nonzero;fill:rgb(0%,44.313725%,80.784314%);fill-opacity:1;" d="M 17.796875 9.59375 C 17.855469 9.027344 17.4375 8.566406 16.867188 8.566406 L 5.234375 8.566406 C 4.664062 8.566406 4.246094 9.027344 4.300781 9.59375 L 4.765625 14.175781 C 4.820312 14.742188 5.332031 15.203125 5.902344 15.203125 L 16.199219 15.203125 C 16.769531 15.203125 17.28125 14.742188 17.335938 14.175781 Z M 17.796875 9.59375 "/>
<use xlink:href="#surface5" mask="url(#mask0)"/>
<use xlink:href="#surface8" mask="url(#mask1)"/>
<path style=" stroke:none;fill-rule:nonzero;fill:rgb(64.313725%,66.27451%,67.843137%);fill-opacity:1;" d="M 6.617188 20.757812 L 15.480469 20.757812 L 15.480469 46 L 6.617188 46 Z M 6.617188 20.757812 "/>
<use xlink:href="#surface11" mask="url(#mask2)"/>
<path style=" stroke:none;fill-rule:nonzero;fill:rgb(20%,24.313725%,28.235294%);fill-opacity:1;" d="M 49.226562 46.746094 C 49.226562 46.976562 49.035156 47.164062 48.808594 47.164062 L 1.191406 47.164062 C 0.964844 47.164062 0.773438 46.976562 0.773438 46.746094 L 0.773438 45.253906 C 0.773438 45.023438 0.964844 44.835938 1.191406 44.835938 L 48.808594 44.835938 C 49.039062 44.835938 49.226562 45.023438 49.226562 45.253906 Z M 49.226562 46.746094 "/>
<path style=" stroke:none;fill-rule:nonzero;fill:rgb(64.313725%,66.27451%,67.843137%);fill-opacity:1;" d="M 19.09375 13.984375 C 19.167969 13.421875 18.761719 12.960938 18.191406 12.960938 L 3.910156 12.960938 C 3.339844 12.960938 2.933594 13.421875 3.007812 13.984375 L 4.023438 21.96875 C 4.09375 22.53125 4.617188 22.996094 5.1875 22.996094 L 16.914062 22.996094 C 17.480469 22.996094 18.007812 22.53125 18.078125 21.96875 Z M 19.09375 13.984375 "/>
<path style=" stroke:none;fill-rule:nonzero;fill:rgb(81.960784%,82.745098%,82.745098%);fill-opacity:1;" d="M 7.695312 12.960938 L 14.40625 12.960938 L 14.40625 17.242188 L 7.695312 17.242188 Z M 7.695312 12.960938 "/>
<path style=" stroke:none;fill-rule:nonzero;fill:rgb(0%,44.313725%,80.784314%);fill-opacity:1;" d="M 3.261719 15.984375 L 3.769531 19.96875 L 18.332031 19.96875 L 18.839844 15.984375 Z M 3.261719 15.984375 "/>
<use xlink:href="#surface14" mask="url(#mask3)"/>
<use xlink:href="#surface17" mask="url(#mask4)"/>
<use xlink:href="#surface20" mask="url(#mask5)"/>
<path style=" stroke:none;fill-rule:nonzero;fill:rgb(81.960784%,82.745098%,82.745098%);fill-opacity:1;" d="M 6.617188 29.097656 L 15.480469 29.097656 L 15.480469 36.019531 L 6.617188 36.019531 Z M 6.617188 29.097656 "/>
<path style=" stroke:none;fill-rule:nonzero;fill:rgb(81.960784%,82.745098%,82.745098%);fill-opacity:1;" d="M 12.699219 9.730469 C 12.699219 10.640625 11.960938 11.378906 11.050781 11.378906 C 10.140625 11.378906 9.402344 10.640625 9.402344 9.730469 L 9.402344 8.566406 C 9.402344 7.65625 10.140625 6.917969 11.050781 6.917969 C 11.960938 6.917969 12.699219 7.65625 12.699219 8.566406 Z M 12.699219 9.730469 "/>
<path style=" stroke:none;fill-rule:nonzero;fill:rgb(64.313725%,66.27451%,67.843137%);fill-opacity:1;" d="M 48.808594 44.835938 L 19.226562 44.835938 L 19.226562 47.164062 L 48.808594 47.164062 C 49.035156 47.164062 49.226562 46.976562 49.226562 46.746094 L 49.226562 45.253906 C 49.226562 45.023438 49.035156 44.835938 48.808594 44.835938 Z M 48.808594 44.835938 "/>
<path style=" stroke:none;fill-rule:nonzero;fill:rgb(81.960784%,82.745098%,82.745098%);fill-opacity:1;" d="M 41.894531 33.460938 L 27.679688 33.460938 L 24.570312 30.351562 C 24.203125 30.003906 23.707031 29.789062 23.164062 29.789062 C 22.035156 29.789062 21.117188 30.707031 21.117188 31.835938 L 21.117188 37.550781 C 21.117188 39.8125 22.949219 41.640625 25.207031 41.640625 L 41.894531 41.640625 C 44.152344 41.640625 45.984375 39.8125 45.984375 37.550781 C 45.984375 35.292969 44.152344 33.460938 41.894531 33.460938 Z M 41.894531 33.460938 "/>
<path style=" stroke:none;fill-rule:nonzero;fill:rgb(0%,44.313725%,80.784314%);fill-opacity:1;" d="M 44.8125 34.6875 L 40.636719 34.6875 C 39.84375 34.6875 39.203125 35.332031 39.203125 36.121094 C 39.203125 36.914062 39.84375 37.554688 40.636719 37.554688 L 45.984375 37.554688 C 45.984375 37.554688 45.984375 37.554688 45.984375 37.550781 C 45.984375 36.4375 45.535156 35.425781 44.8125 34.6875 Z M 44.8125 34.6875 "/>
<path style=" stroke:none;fill-rule:nonzero;fill:rgb(20%,24.313725%,28.235294%);fill-opacity:1;" d="M 41.855469 43.238281 C 41.855469 44.121094 41.140625 44.835938 40.261719 44.835938 C 39.378906 44.835938 38.664062 44.121094 38.664062 43.238281 C 38.664062 42.355469 39.378906 41.640625 40.261719 41.640625 C 41.140625 41.640625 41.855469 42.355469 41.855469 43.238281 Z M 41.855469 43.238281 "/>
<path style=" stroke:none;fill-rule:nonzero;fill:rgb(20%,24.313725%,28.235294%);fill-opacity:1;" d="M 31.097656 43.238281 C 31.097656 44.121094 30.382812 44.835938 29.5 44.835938 C 28.621094 44.835938 27.90625 44.121094 27.90625 43.238281 C 27.90625 42.355469 28.621094 41.640625 29.5 41.640625 C 30.382812 41.640625 31.097656 42.355469 31.097656 43.238281 Z M 31.097656 43.238281 "/>
<path style=" stroke:none;fill-rule:nonzero;fill:rgb(0%,44.313725%,80.784314%);fill-opacity:1;" d="M 27.679688 33.460938 L 24.570312 30.351562 C 24.203125 30.003906 23.707031 29.789062 23.164062 29.789062 C 22.035156 29.789062 21.117188 30.707031 21.117188 31.835938 L 21.117188 37.550781 C 21.117188 38.96875 21.835938 40.214844 22.929688 40.949219 C 23.699219 38.417969 26.167969 33.460938 33.066406 33.460938 Z M 27.679688 33.460938 "/>
<path style=" stroke:none;fill-rule:nonzero;fill:rgb(0%,70.196078%,89.019608%);fill-opacity:1;" d="M 25.574219 31.355469 C 23.765625 32.007812 22.230469 33.089844 21.117188 34.140625 L 21.117188 36.441406 C 21.988281 35.316406 24.046875 33.328125 26.804688 32.589844 Z M 25.574219 31.355469 "/>
<path style=" stroke:none;fill-rule:nonzero;fill:rgb(100%,72.156863%,9.803922%);fill-opacity:1;" d="M 44.121094 20.449219 C 44.121094 23.167969 41.917969 25.371094 39.203125 25.371094 C 36.484375 25.371094 34.28125 23.167969 34.28125 20.449219 C 34.28125 17.730469 36.484375 15.527344 39.203125 15.527344 C 41.917969 15.527344 44.121094 17.730469 44.121094 20.449219 Z M 44.121094 20.449219 "/>
<path style=" stroke:none;fill-rule:nonzero;fill:rgb(11.764706%,14.509804%,16.862745%);fill-opacity:1;" d="M 48.808594 44.058594 L 42.484375 44.058594 C 42.582031 43.804688 42.632812 43.527344 42.632812 43.238281 C 42.632812 42.9375 42.574219 42.648438 42.472656 42.382812 C 44.882812 42.09375 46.757812 40.039062 46.757812 37.550781 C 46.757812 34.867188 44.574219 32.6875 41.894531 32.6875 L 28 32.6875 L 25.136719 29.824219 C 25.125 29.8125 25.113281 29.800781 25.101562 29.789062 C 24.574219 29.289062 23.886719 29.015625 23.164062 29.015625 C 21.609375 29.015625 20.34375 30.28125 20.34375 31.835938 L 20.34375 37.550781 C 20.34375 40.234375 22.523438 42.417969 25.207031 42.417969 L 27.277344 42.417969 C 27.179688 42.671875 27.128906 42.949219 27.128906 43.238281 C 27.128906 43.527344 27.179688 43.804688 27.277344 44.058594 L 16.257812 44.058594 L 16.257812 23.769531 L 16.914062 23.769531 C 17.875 23.769531 18.726562 23.023438 18.847656 22.066406 L 19.863281 14.082031 C 19.925781 13.59375 19.78125 13.105469 19.464844 12.746094 C 19.175781 12.417969 18.761719 12.222656 18.316406 12.191406 L 18.363281 11.730469 L 36.285156 11.730469 C 36.867188 11.730469 37.203125 11.496094 37.378906 11.296875 C 37.757812 10.871094 37.699219 10.328125 37.675781 10.128906 C 37.257812 6.449219 34.148438 3.675781 30.441406 3.675781 C 29.640625 3.675781 28.855469 3.804688 28.109375 4.058594 C 26.523438 2.765625 24.546875 2.058594 22.488281 2.058594 C 20.546875 2.058594 18.703125 2.671875 17.15625 3.835938 C 15.8125 4.84375 14.769531 6.230469 14.175781 7.789062 L 13.347656 7.789062 C 13.023438 6.832031 12.117188 6.140625 11.050781 6.140625 C 9.984375 6.140625 9.078125 6.832031 8.753906 7.789062 L 5.234375 7.789062 C 4.742188 7.789062 4.277344 7.996094 3.957031 8.347656 C 3.636719 8.703125 3.480469 9.183594 3.53125 9.671875 L 3.785156 12.191406 C 3.339844 12.222656 2.925781 12.417969 2.636719 12.746094 C 2.320312 13.105469 2.175781 13.59375 2.238281 14.082031 L 3.253906 22.066406 C 3.375 23.023438 4.222656 23.769531 5.1875 23.769531 L 5.84375 23.769531 L 5.84375 44.058594 L 1.191406 44.058594 C 0.535156 44.058594 0 44.59375 0 45.253906 L 0 46.746094 C 0 47.40625 0.535156 47.941406 1.191406 47.941406 L 48.808594 47.941406 C 49.464844 47.941406 50 47.40625 50 46.746094 L 50 45.253906 C 50 44.59375 49.464844 44.058594 48.808594 44.058594 Z M 40.636719 35.464844 L 44.464844 35.464844 C 44.773438 35.84375 45 36.289062 45.117188 36.78125 L 40.636719 36.78125 C 40.273438 36.78125 39.976562 36.484375 39.976562 36.121094 C 39.976562 35.757812 40.273438 35.464844 40.636719 35.464844 Z M 21.894531 37.550781 L 21.894531 31.835938 C 21.894531 31.136719 22.460938 30.566406 23.164062 30.566406 C 23.480469 30.566406 23.785156 30.683594 24.019531 30.898438 L 27.128906 34.007812 C 27.167969 34.046875 27.210938 34.082031 27.253906 34.109375 C 26.492188 34.542969 25.792969 35.074219 25.15625 35.703125 C 23.882812 36.960938 23.085938 38.378906 22.59375 39.585938 C 22.15625 39.023438 21.894531 38.316406 21.894531 37.550781 Z M 25.207031 40.867188 C 24.730469 40.867188 24.28125 40.765625 23.871094 40.582031 C 24.710938 38.292969 27.046875 34.238281 33.066406 34.238281 L 39.492188 34.238281 C 38.855469 34.625 38.425781 35.324219 38.425781 36.121094 C 38.425781 37.339844 39.417969 38.332031 40.636719 38.332031 L 45.113281 38.332031 C 44.761719 39.785156 43.453125 40.867188 41.894531 40.867188 Z M 41.082031 43.238281 C 41.082031 43.691406 40.714844 44.058594 40.261719 44.058594 C 39.808594 44.058594 39.4375 43.691406 39.4375 43.238281 C 39.4375 42.785156 39.808594 42.417969 40.261719 42.417969 C 40.714844 42.417969 41.082031 42.785156 41.082031 43.238281 Z M 38.035156 44.058594 L 31.726562 44.058594 C 31.820312 43.804688 31.875 43.527344 31.875 43.238281 C 31.875 42.949219 31.820312 42.671875 31.726562 42.417969 L 38.035156 42.417969 C 37.941406 42.671875 37.886719 42.949219 37.886719 43.238281 C 37.886719 43.527344 37.941406 43.804688 38.035156 44.058594 Z M 30.324219 43.238281 C 30.324219 43.691406 29.953125 44.058594 29.5 44.058594 C 29.046875 44.058594 28.679688 43.691406 28.679688 43.238281 C 28.679688 42.785156 29.046875 42.417969 29.5 42.417969 C 29.953125 42.417969 30.324219 42.785156 30.324219 43.238281 Z M 22.488281 3.609375 C 24.320312 3.609375 26.074219 4.289062 27.429688 5.519531 C 27.652344 5.722656 27.96875 5.777344 28.246094 5.660156 C 28.945312 5.371094 29.679688 5.226562 30.441406 5.226562 C 33.316406 5.226562 35.738281 7.347656 36.117188 10.179688 L 18.519531 10.179688 L 18.570312 9.671875 C 18.617188 9.183594 18.464844 8.703125 18.144531 8.347656 C 17.824219 7.996094 17.359375 7.792969 16.867188 7.792969 L 15.855469 7.792969 C 17.058594 5.253906 19.605469 3.609375 22.488281 3.609375 Z M 10.175781 8.566406 C 10.175781 8.085938 10.570312 7.691406 11.050781 7.691406 C 11.53125 7.691406 11.925781 8.085938 11.925781 8.566406 L 11.925781 9.730469 C 11.925781 10.210938 11.53125 10.601562 11.050781 10.601562 C 10.570312 10.601562 10.175781 10.210938 10.175781 9.730469 Z M 5.109375 9.386719 C 5.136719 9.359375 5.179688 9.339844 5.234375 9.339844 L 8.625 9.339844 L 8.625 9.730469 C 8.625 11.066406 9.714844 12.152344 11.050781 12.152344 C 12.386719 12.152344 13.472656 11.066406 13.472656 9.730469 L 13.472656 9.339844 L 16.867188 9.339844 C 16.921875 9.339844 16.964844 9.359375 16.992188 9.386719 C 17.019531 9.417969 17.03125 9.464844 17.027344 9.515625 L 16.757812 12.183594 L 5.34375 12.183594 L 5.074219 9.515625 C 5.070312 9.464844 5.082031 9.417969 5.109375 9.386719 Z M 5.1875 22.21875 C 5.007812 22.21875 4.8125 22.046875 4.792969 21.871094 L 3.773438 13.886719 C 3.769531 13.851562 3.769531 13.804688 3.800781 13.773438 C 3.828125 13.742188 3.875 13.734375 3.910156 13.734375 L 18.191406 13.734375 C 18.226562 13.734375 18.273438 13.742188 18.300781 13.773438 C 18.328125 13.804688 18.332031 13.851562 18.324219 13.886719 L 17.308594 21.871094 C 17.285156 22.046875 17.089844 22.21875 16.914062 22.21875 Z M 14.707031 23.769531 L 14.707031 44.058594 L 7.394531 44.058594 L 7.394531 23.769531 Z M 18.449219 46.390625 L 1.550781 46.390625 L 1.550781 45.609375 L 18.449219 45.609375 Z M 48.449219 46.390625 L 20 46.390625 L 20 45.609375 L 48.449219 45.609375 Z M 36.246094 38.433594 L 28.441406 38.433594 C 28.015625 38.433594 27.667969 38.78125 27.667969 39.210938 C 27.667969 39.636719 28.015625 39.984375 28.441406 39.984375 L 36.246094 39.984375 C 36.675781 39.984375 37.023438 39.636719 37.023438 39.210938 C 37.023438 38.78125 36.675781 38.433594 36.246094 38.433594 Z M 33.507812 20.449219 C 33.507812 23.589844 36.0625 26.144531 39.203125 26.144531 C 42.34375 26.144531 44.898438 23.589844 44.898438 20.449219 C 44.898438 17.308594 42.34375 14.753906 39.203125 14.753906 C 36.0625 14.753906 33.507812 17.308594 33.507812 20.449219 Z M 39.203125 16.304688 C 41.488281 16.304688 43.347656 18.164062 43.347656 20.449219 C 43.347656 22.734375 41.488281 24.59375 39.203125 24.59375 C 36.917969 24.59375 35.054688 22.734375 35.054688 20.449219 C 35.054688 18.164062 36.917969 16.304688 39.203125 16.304688 Z M 39.203125 16.304688 "/>
</g>
</svg>
